# xmcd
#
# Track frame offsets: 
#        150
#        15300
#        30125
#        47378
#        60685
#        76203
#        93448
#        104586
#        123202
#        146330
#        159980
#        180079
#        194479
#        209299
#        221534
#        244523
#        256094
#        271366
#
# Disc length: 3826 seconds
#
# Revision: 0
# Processed by: cddbd v1.5.1PL2 Copyright (c) Steve Scherf et al.
# Submitted via: ExactAudioCopy v0.95b2
#
DISCID=db0ef012
DTITLE=Various Artist - czqg
DYEAR=1900
DGENRE=Bass
TTITLE0=阿里山的姑娘
TTITLE1=忘记心中情
TTITLE2=只有情永在
TTITLE3=我是痴情无限
TTITLE4=用爱将比
TTITLE5=祈福
TTITLE6=心魔
TTITLE7=采槟榔
TTITLE8=美酒加咖啡
TTITLE9=田园之歌
TTITLE10=帝女花
TTITLE11=风再同路
TTITLE12=月落乌啼
TTITLE13=总有一天等到你
TTITLE14=另一种乡愁
TTITLE15=我的心
TTITLE16=摇篮曲
TTITLE17=采江陵
EXTD=
EXTT0=
EXTT1=
EXTT2=
EXTT3=
EXTT4=
EXTT5=
EXTT6=
EXTT7=
EXTT8=
EXTT9=
EXTT10=
EXTT11=
EXTT12=
EXTT13=
EXTT14=
EXTT15=
EXTT16=
EXTT17=
PLAYORDER=
